# xmcd
# Copyright (c) 1998 CDDB Inc.
#
# Track frame offsets:
#	150
#	17454
#	34668
#	52344
#	71843
#	87124
#	107296
#	129905
#	145109
#	162192
#	175658
#
# Disc length: 2707 seconds
#
# Revision: 1
# Processed by: cddbd v1.4b42PL1 Copyright (c) Steve Scherf et al.
# Submitted via: audiograbber 1.62
#
DISCID=850a910b
DTITLE=The Meteors - Psycho Down
DYEAR=1900
DGENRE=
TTITLE0=Halloween Scream
TTITLE1=King of the Mutilators
TTITLE2=Crawling
TTITLE3=Peace of Mind
TTITLE4=I Ain't no good for you
TTITLE5=Do you wanna make a Monster (Blow by Blow)
TTITLE6=Something Wicked (This Way comes)
TTITLE7=No Way Out
TTITLE8=Freak
TTITLE9=Fuck off and Die
TTITLE10=Psycho Down
EXTD=
EXTT0=
EXTT1=
EXTT2=
EXTT3=
EXTT4=
EXTT5=
EXTT6=
EXTT7=
EXTT8=
EXTT9=
EXTT10=
PLAYORDER=
